<?xml version="1.0" standalone="no"?>
<!DOCTYPE svg PUBLIC "-//W3C//DTD SVG 20010904//EN"
 "http://www.w3.org/TR/2001/REC-SVG-20010904/DTD/svg10.dtd">
<svg version="1.0" xmlns="http://www.w3.org/2000/svg"
 width="999.000000pt" height="331.000000pt" viewBox="0 0 999.000000 331.000000"
 preserveAspectRatio="xMidYMid meet">

<g transform="translate(0.000000,331.000000) scale(0.100000,-0.100000)"
fill="#000000" stroke="none">
<path d="M413 3025 c-32 -16 -61 -41 -79 -67 l-29 -41 0 -1216 c0 -1214 0
-1216 21 -1256 11 -22 40 -53 63 -70 l43 -30 2116 1 c1165 0 2126 1 2137 1 11
0 1109 -1 2440 -1 l2420 -1 40 21 c22 11 54 40 70 63 l30 43 3 1206 2 1206
-25 52 c-16 33 -40 62 -67 80 l-41 29 -1513 3 -1513 2 8 -22 c4 -13 18 -27 29
-33 25 -11 30 -30 6 -21 -11 4 -14 1 -12 -11 5 -25 25 -27 33 -3 8 26 22 18
30 -20 l7 -30 294 0 294 0 0 -25 0 -26 -317 1 -318 1 -3 -51 c-3 -56 -4 -56
51 -17 l29 20 31 -32 c31 -31 31 -32 12 -43 -11 -6 -34 -26 -51 -44 -20 -21
-31 -27 -30 -17 0 8 -7 20 -17 27 -15 9 -21 7 -32 -7 -11 -16 -17 -17 -35 -7
-28 15 -44 0 -58 -52 l-10 -38 49 0 c27 0 49 -2 49 -4 0 -2 -7 -23 -15 -46
-16 -45 -13 -60 11 -60 19 0 18 -7 -5 -32 -11 -11 -18 -25 -15 -32 2 -6 -13
-20 -33 -31 -21 -11 -42 -30 -48 -43 -6 -13 -18 -22 -33 -22 -18 0 -21 4 -18
22 19 91 18 98 -8 98 -14 0 -27 4 -30 8 -7 11 14 94 29 112 33 41 38 135 8
147 -7 3 -22 -2 -32 -11 -22 -20 -35 -21 -27 0 5 14 -3 15 -62 9 -43 -4 -62
-3 -52 3 8 5 50 13 93 17 42 4 77 10 77 14 0 4 -9 16 -20 26 -11 10 -22 26
-25 36 -4 10 -12 16 -20 13 -10 -4 -12 0 -8 15 5 21 4 21 -247 21 l-251 0 3
23 c3 22 3 22 232 25 202 2 230 1 241 -14 14 -19 59 -22 79 -5 8 7 16 25 18
39 l3 27 18 -32 c19 -35 39 -41 81 -22 17 8 25 21 29 48 2 20 1 40 -4 45 -5 6
-48 3 -111 -7 -56 -9 -104 -14 -107 -11 -3 2 -5 20 -5 39 l0 35 -1321 0 -1321
0 -60 -28 c-32 -16 -76 -32 -97 -35 -34 -5 -43 -2 -76 29 l-38 34 -1470 0
-1469 0 -51 -25z m2757 -54 c14 -27 13 -29 -15 -23 -14 2 -32 -1 -40 -8 -25
-20 -27 -5 -4 23 24 32 44 34 59 8z m3350 3 c0 -9 -5 -14 -12 -12 -18 6 -21
28 -4 28 9 0 16 -7 16 -16z m-3450 -76 c-1 -32 -59 -113 -86 -122 -34 -11 -44
-23 -36 -44 3 -10 1 -13 -6 -8 -22 13 -51 -4 -92 -56 -22 -28 -40 -48 -40 -44
0 15 29 62 49 80 12 11 21 25 21 32 0 19 36 49 96 81 30 15 54 31 54 36 0 4
-54 7 -120 7 l-120 0 0 25 0 25 140 0 c106 0 140 -3 140 -12z m530 5 c0 -3 -7
-15 -17 -25 -13 -15 -31 -18 -96 -18 l-80 0 23 25 c21 22 32 25 97 25 40 0 73
-3 73 -7z m2090 -18 l0 -25 -685 0 -685 0 0 25 0 25 685 0 685 0 0 -25z
m-1928 -90 c2 -24 12 -35 49 -54 l46 -25 30 22 c35 25 43 21 43 -25 0 -27 6
-37 33 -53 17 -11 40 -20 50 -20 24 0 22 -3 -24 -66 -61 -83 -116 -95 -193
-44 -51 35 -136 127 -136 148 0 8 8 26 19 40 10 15 22 38 26 52 11 38 36 73
45 64 5 -5 10 -22 12 -39z m288 5 c0 -5 -7 -10 -16 -10 -8 0 -12 5 -9 10 3 6
10 10 16 10 5 0 9 -4 9 -10z m-1310 -172 c1 -165 2 -172 17 -143 9 17 18 25
20 18 2 -6 -2 -22 -10 -35 -18 -29 -31 -82 -18 -74 5 3 14 -7 19 -23 5 -15 25
-43 43 -61 l34 -33 -30 18 c-16 10 -40 27 -52 38 l-23 20 0 -481 0 -482 -25 0
-25 0 0 705 0 705 25 0 25 0 0 -172z m1530 -3 c0 -96 -4 -175 -9 -175 -4 0
-17 21 -27 48 -16 39 -19 69 -16 175 l3 127 24 0 25 0 0 -175z m1520 -252 c0
-383 -2 -428 -17 -445 -9 -10 -20 -18 -25 -18 -4 0 -8 200 -8 445 l0 445 25 0
25 0 0 -427z m1530 -278 l0 -705 -25 0 -25 0 0 705 0 705 25 0 25 0 0 -705z
m-4330 650 c-14 -17 -30 -20 -30 -5 0 6 7 10 15 10 8 0 15 5 15 12 0 6 3 8 6
5 4 -4 1 -13 -6 -22z m3777 -32 c-2 -2 -18 0 -36 3 -21 4 -28 10 -20 14 11 7
64 -9 56 -17z m-3819 -48 c-13 -28 -25 -31 -51 -11 -17 13 -16 15 10 24 47 17
54 15 41 -13z m482 5 c11 -7 8 -10 -15 -9 -16 0 -39 4 -50 9 -16 7 -14 9 15 9
19 0 42 -4 50 -9z m55 0 c-3 -5 -11 -10 -16 -10 -6 0 -7 5 -4 10 3 6 11 10 16
10 6 0 7 -4 4 -10z m2699 -31 c15 -22 26 -42 24 -43 -2 -1 -27 -17 -56 -35
-51 -32 -53 -33 -67 -15 -8 11 -15 22 -15 27 0 18 -18 4 -40 -33 -24 -38 -40
-50 -40 -31 0 21 140 169 161 171 4 0 19 -18 33 -41z m607 -27 l25 -17 -17
-55 c-10 -30 -18 -48 -19 -40 0 13 -1 13 -10 0 -6 -10 -5 -20 5 -30 12 -12 21
-12 48 -2 70 25 112 7 131 -57 8 -25 24 -71 36 -101 22 -54 23 -119 4 -195 -7
-30 -24 -33 -24 -4 0 11 -5 30 -12 42 -6 12 -11 54 -12 95 -1 61 -4 76 -20 88
-37 26 -56 18 -56 -23 0 -53 -12 -68 -39 -53 -12 6 -32 10 -44 8 -20 -3 -22 1
-19 33 2 34 0 37 -29 43 -17 3 -42 6 -55 6 -29 0 -46 29 -39 67 3 15 9 68 14
117 6 55 14 92 22 97 18 12 78 2 110 -19z m106 16 c6 -7 13 -21 16 -31 6 -17
5 -17 -15 -2 -13 8 -30 15 -40 15 -21 0 -24 16 -5 23 21 9 34 7 44 -5z m-3632
-38 c3 -6 -1 -7 -9 -4 -18 7 -21 14 -7 14 6 0 13 -4 16 -10z m3040 -141 c-7
-57 -9 -61 -21 -44 -17 23 -18 78 -3 107 20 37 32 5 24 -63z m-2471 42 c3 -5
-4 -21 -16 -36 l-21 -27 -14 26 c-8 15 -11 31 -8 36 8 12 52 13 59 1z m2783
-16 c0 -8 -6 -16 -14 -19 -11 -4 -11 -1 -3 14 13 24 17 25 17 5z m-624 -205
c-7 -25 -19 -69 -25 -97 -7 -29 -15 -53 -18 -53 -4 0 -17 11 -29 24 -18 19
-22 32 -17 51 4 14 11 60 16 101 5 42 13 80 16 86 4 6 20 -5 39 -28 33 -38 33
-39 18 -84z m-1986 78 c-3 -8 -6 -5 -6 6 -1 11 2 17 5 13 3 -3 4 -12 1 -19z
m2356 -62 c-10 -13 -20 -22 -22 -20 -4 4 29 44 36 44 2 0 -4 -11 -14 -24z
m229 -32 c24 -12 49 -15 99 -12 l68 5 7 -42 c5 -35 2 -47 -14 -63 -13 -13 -22
-17 -25 -9 -2 8 -31 3 -95 -16 -50 -15 -99 -27 -110 -27 -23 0 -42 39 -42 84
0 31 3 34 53 48 39 12 45 16 25 17 -18 1 -28 7 -28 16 0 19 23 19 62 -1z
m-3603 -72 c7 -6 9 -12 4 -15 -6 -4 -21 5 -34 20 -20 22 -21 24 -4 15 11 -6
26 -15 34 -20z m119 8 c13 -21 7 -90 -8 -90 -11 0 -30 79 -23 96 7 19 16 17
31 -6z m3262 -10 c6 -11 8 -20 6 -20 -3 0 -10 9 -16 20 -6 11 -8 20 -6 20 3 0
10 -9 16 -20z m-1708 -7 c22 -20 23 -46 3 -63 -22 -18 -19 -32 19 -73 32 -35
33 -37 11 -37 -15 0 -36 16 -59 45 -21 25 -42 45 -47 45 -13 0 -11 -64 3 -78
9 -9 3 -12 -27 -12 -30 0 -36 3 -27 12 17 17 16 165 0 171 -7 3 14 6 46 6 42
1 65 -4 78 -16z m217 -8 c3 -19 3 -19 -16 -2 -11 9 -34 17 -51 17 l-32 0 0
-85 0 -85 33 0 c18 0 43 7 56 16 22 16 23 15 19 -2 -3 -16 -14 -19 -83 -22
-64 -2 -77 0 -67 10 16 16 16 150 0 166 -10 10 2 12 62 10 66 -3 75 -5 79 -23z
m104 15 c-29 -12 -43 -40 -43 -87 0 -78 75 -111 125 -57 l25 27 0 -26 c0 -23
-4 -26 -54 -32 -39 -5 -61 -3 -83 9 -36 18 -58 65 -49 102 9 35 50 74 78 73
l23 0 -22 -9z m105 -6 c2 -1 2 -11 0 -22 -3 -18 -5 -17 -29 9 l-26 29 26 -7
c14 -3 27 -7 29 -9z m202 -6 c0 -20 -1 -20 -18 -5 -10 10 -28 17 -40 17 -21 0
-22 -4 -22 -84 0 -58 4 -86 13 -89 6 -3 -6 -6 -27 -6 -31 -1 -37 2 -28 11 7 7
12 43 12 90 l0 78 -30 0 c-17 0 -33 -7 -39 -17 -9 -16 -10 -16 -11 5 0 21 3
22 95 22 91 0 95 -1 95 -22z m65 -3 c-50 -49 -25 -155 35 -155 60 0 85 106 35
155 -29 30 -9 34 28 5 68 -54 25 -170 -63 -170 -88 0 -131 116 -63 170 37 29
57 25 28 -5z m-1539 -50 c15 -36 18 -107 5 -139 -11 -28 -44 108 -36 145 8 37
13 36 31 -6z m1034 -21 c0 -17 -4 -24 -12 -20 -7 3 -21 9 -31 12 -16 6 -16 8
5 19 34 19 38 18 38 -11z m1980 -31 c0 -8 -12 -13 -30 -13 -26 0 -30 -3 -30
-29 0 -33 17 -36 44 -8 10 9 19 17 22 17 2 0 4 -25 4 -55 l0 -56 -97 3 c-108
3 -111 6 -98 74 4 25 11 34 25 34 11 0 20 7 20 15 0 8 6 12 14 9 7 -3 20 1 27
8 8 7 23 20 33 28 18 14 19 13 13 -2 -4 -10 -2 -18 4 -18 7 0 9 11 6 26 l-4
25 23 -22 c13 -12 24 -28 24 -36z m-343 -37 c24 -22 33 -40 33 -63 0 -35 2
-34 -92 -37 -14 -1 -25 -9 -29 -21 -3 -11 -5 17 -3 63 2 45 6 87 9 93 10 15
46 0 82 -35z m-2701 -37 c7 -30 14 -71 14 -92 0 -21 6 -48 14 -60 28 -44 60
-217 58 -312 -2 -49 2 -111 9 -137 l11 -48 134 0 134 0 0 -25 0 -25 -685 0
-685 0 0 25 0 25 413 0 414 0 26 88 c33 110 67 278 67 330 0 22 6 70 14 108 8
38 20 95 26 127 7 32 14 56 17 54 2 -3 11 -29 19 -58z m3089 39 c2 -7 5 -39 8
-70 3 -53 2 -56 -15 -47 -14 8 -18 22 -18 69 0 35 4 60 10 60 6 0 12 -6 15
-12z m-2605 -318 l0 -320 -25 0 -25 0 0 310 c0 284 1 310 18 319 9 6 20 11 25
11 4 0 7 -144 7 -320z m1600 285 c-18 -14 -36 -23 -38 -20 -10 9 31 45 51 45
17 0 15 -4 -13 -25z m96 -35 c-3 -18 0 -39 6 -50 16 -25 10 -30 -40 -32 -55
-2 -61 6 -29 40 15 16 27 33 27 40 0 7 7 12 15 12 8 0 15 5 15 10 0 6 3 10 6
10 4 0 4 -14 0 -30z m-2861 -57 c-9 -52 -16 -75 -21 -70 -5 5 16 107 22 107 3
0 2 -17 -1 -37z m2929 31 c16 -6 23 -54 8 -54 -20 0 -45 28 -39 44 7 18 9 19
31 10z m-5489 -164 l-59 -60 59 -60 c32 -33 57 -62 54 -64 -3 -3 -34 24 -69
59 l-64 65 64 65 c35 35 66 62 69 59 3 -2 -22 -31 -54 -64z m3348 12 c34 -72
57 -138 57 -166 0 -16 -7 -21 -28 -23 -28 -2 -28 -2 -50 111 -12 62 -22 118
-22 124 0 27 17 9 43 -46z m1814 15 c-8 -7 -17 -19 -20 -27 -3 -9 -6 -6 -6 8
-1 13 4 33 10 44 11 20 12 20 21 4 7 -13 6 -21 -5 -29z m3773 -152 c-35 -35
-66 -62 -69 -59 -3 2 22 31 54 64 l59 60 -57 58 c-31 32 -57 62 -57 67 0 5 30
-20 67 -57 l68 -68 -65 -65z m-3668 149 c-21 -15 -22 -21 -22 -210 l0 -194
-25 0 -25 0 0 169 c0 161 -1 170 -20 176 -21 7 -27 30 -10 40 6 3 10 -4 10
-16 0 -21 1 -21 21 5 11 14 25 24 29 21 5 -3 19 4 30 15 12 12 24 19 28 16 3
-4 -4 -13 -16 -22z m591 6 c6 -24 -8 -36 -17 -14 -8 22 -7 34 3 34 5 0 11 -9
14 -20z m-3336 -192 c-3 -7 -5 -2 -5 12 0 14 2 19 5 13 2 -7 2 -19 0 -25z m56
-51 c2 -32 0 -52 -4 -45 -5 7 -8 38 -8 68 1 66 6 56 12 -23z m894 -84 c18 -44
17 -46 -11 -18 -13 13 -27 36 -30 51 -7 25 -6 26 10 13 9 -8 23 -28 31 -46z
m-880 -15 c-3 -7 -5 -2 -5 12 0 14 2 19 5 13 2 -7 2 -19 0 -25z m2553 -143 l0
-25 -685 0 -685 0 0 25 0 25 685 0 685 0 0 -25z m1530 0 l0 -25 -690 0 -690 0
0 25 0 25 690 0 690 0 0 -25z m-1990 -370 c0 -69 -3 -85 -15 -85 -11 0 -15 11
-15 40 0 22 -4 40 -10 40 -5 0 -10 -16 -10 -35 0 -24 -5 -35 -15 -35 -12 0
-15 15 -15 75 0 60 3 75 15 75 9 0 15 -9 15 -25 0 -14 5 -25 10 -25 6 0 10 14
10 30 0 20 5 30 15 30 12 0 15 -16 15 -85z m410 50 c0 -24 5 -35 15 -35 8 0
15 -6 15 -14 0 -8 -7 -16 -15 -20 -9 -3 -15 -18 -15 -36 0 -20 -5 -30 -15 -30
-12 0 -15 15 -15 78 0 43 3 82 7 85 15 15 23 5 23 -28z m480 10 c0 -8 -4 -15
-10 -15 -5 0 -10 -9 -10 -20 0 -12 7 -20 16 -20 9 0 14 -6 12 -12 -3 -9 -29
-13 -83 -13 -54 0 -80 4 -82 13 -3 6 2 12 11 12 9 0 16 8 16 20 0 11 -4 20
-10 20 -5 0 -10 7 -10 15 0 12 15 15 75 15 60 0 75 -3 75 -15z m-1237 -15 c4
-16 14 -20 46 -20 34 0 41 3 41 20 0 11 7 20 15 20 12 0 15 -13 15 -60 l0 -60
-75 0 -75 0 0 60 c0 44 4 60 14 60 7 0 16 -9 19 -20z m247 -15 c0 -32 -2 -35
-30 -35 -16 0 -30 -4 -30 -10 0 -5 16 -10 35 -10 24 0 35 -5 35 -15 0 -11 -12
-15 -50 -15 l-50 0 0 35 c0 32 2 35 30 35 37 0 40 18 3 22 -48 6 -39 28 11 28
46 0 46 0 46 -35z m300 20 c0 -12 -13 -15 -60 -15 l-60 0 0 -30 0 -30 60 0
c47 0 60 -3 60 -15 0 -13 -13 -15 -77 -13 l-78 3 -3 44 c-5 68 -2 71 83 71 60
0 75 -3 75 -15z m158 -22 c-2 -28 -8 -39 -22 -41 -15 -3 -18 0 -12 21 6 24 4
26 -36 29 -23 2 -43 9 -46 16 -3 9 13 12 58 12 l61 0 -3 -37z m304 20 c29 -26
23 -71 -12 -91 -16 -9 -30 -25 -30 -34 0 -15 9 -18 45 -18 25 0 45 -4 45 -10
0 -6 -42 -10 -105 -10 -63 0 -105 4 -105 10 0 6 18 10 39 10 45 0 64 18 36 34
-57 33 -69 72 -35 106 25 25 95 27 122 3z m-1894 -19 c28 -19 30 -69 3 -86
-19 -12 -19 -12 0 -39 24 -33 24 -39 1 -39 -10 0 -26 14 -35 30 -10 17 -27 30
-38 30 -14 0 -19 -7 -19 -30 0 -20 -5 -30 -15 -30 -12 0 -15 17 -15 90 l0 90
48 0 c27 0 57 -7 70 -16z m192 1 c0 -11 -12 -15 -50 -15 -47 0 -50 -2 -50 -25
0 -23 4 -25 45 -25 33 0 45 -4 45 -15 0 -11 -12 -15 -45 -15 -38 0 -45 -3 -45
-20 0 -17 7 -20 50 -20 38 0 50 -4 50 -15 0 -12 -14 -15 -65 -15 l-65 0 0 90
0 90 65 0 c51 0 65 -3 65 -15z m167 2 c34 -19 15 -42 -20 -26 -57 26 -107 -35
-72 -87 16 -25 68 -34 80 -14 5 8 12 7 22 -1 13 -11 13 -14 -3 -26 -30 -22
-92 -16 -119 12 -73 72 22 192 112 142z m183 -2 c0 -9 -9 -15 -25 -15 -24 0
-25 -2 -25 -75 0 -68 -2 -75 -20 -75 -18 0 -20 7 -20 75 0 73 -1 75 -25 75
-16 0 -25 6 -25 15 0 12 14 15 70 15 56 0 70 -3 70 -15z m171 -14 c60 -61 24
-151 -61 -151 -55 0 -90 34 -90 87 1 86 91 124 151 64z m819 -21 c0 -16 7 -20
35 -20 24 0 35 -5 35 -15 0 -12 -14 -15 -70 -15 -40 0 -70 4 -70 10 0 6 9 10
20 10 15 0 20 7 20 25 0 16 6 25 15 25 8 0 15 -9 15 -20z m620 -45 c0 -12 -18
-15 -105 -15 -87 0 -105 3 -105 15 0 12 18 15 105 15 87 0 105 -3 105 -15z
m-1040 -45 c0 -18 7 -20 60 -20 47 0 60 -3 60 -15 0 -12 -15 -15 -75 -15 l-75
0 0 35 c0 24 5 35 15 35 8 0 15 -9 15 -20z m420 0 c0 -18 7 -20 60 -20 47 0
60 -3 60 -15 0 -13 -13 -15 -77 -13 -66 3 -78 6 -81 21 -5 26 5 47 23 47 8 0
15 -9 15 -20z m470 0 c0 -18 7 -20 60 -20 47 0 60 -3 60 -15 0 -12 -15 -15
-75 -15 l-75 0 0 35 c0 24 5 35 15 35 8 0 15 -9 15 -20z m-970 -10 c0 -6 -42
-10 -105 -10 -63 0 -105 4 -105 10 0 6 42 10 105 10 63 0 105 -4 105 -10z
m430 0 c0 -6 -42 -10 -105 -10 -63 0 -105 4 -105 10 0 6 42 10 105 10 63 0
105 -4 105 -10z m-987 -200 c9 0 9 -2 1 -8 -7 -4 -14 -16 -17 -27 -2 -11 -5 0
-5 25 0 25 2 37 5 28 2 -10 10 -18 16 -18z m904 2 c0 -9 -6 -26 -13 -37 -20
-28 -18 -33 19 -38 31 -4 31 -4 -5 -5 -28 -2 -38 2 -38 13 0 8 -6 15 -12 15
-8 0 -9 3 -3 8 14 10 14 52 1 53 -6 0 -2 4 9 8 26 11 42 4 42 -17z m35 5 c3
-13 1 -32 -3 -43 -5 -13 -8 -7 -8 24 -1 46 4 55 11 19z m108 -7 c3 -3 0 -16
-7 -30 -12 -24 -13 -23 -12 20 0 25 3 38 6 30 3 -8 9 -17 13 -20z m-1107 13
c-32 -6 -29 -31 5 -36 25 -4 25 -4 -5 -6 -29 -1 -33 2 -33 24 0 21 4 25 28 24
23 -2 24 -2 5 -6z m125 -23 c20 0 23 -3 13 -9 -11 -7 -9 -10 10 -14 13 -2 2
-4 -26 -5 -39 0 -44 2 -25 8 17 5 19 8 8 9 -12 1 -18 9 -17 24 1 16 2 18 6 5
3 -12 14 -18 31 -18z m127 7 c10 -20 8 -22 -15 -23 -24 -1 -26 1 -16 22 14 30
18 30 31 1z m47 11 c6 -17 -1 -38 -13 -38 -5 0 -9 11 -9 25 0 26 14 34 22 13z
m53 -8 c-3 -16 2 -20 28 -21 31 -1 31 -1 7 -9 -17 -5 -19 -8 -7 -9 10 -1 17
-9 17 -21 0 -16 -7 -20 -35 -20 -39 0 -48 21 -17 39 15 9 14 11 -8 11 -14 1
-19 4 -12 7 6 2 12 13 12 24 0 10 4 19 9 19 6 0 8 -9 6 -20z m39 5 c3 -9 0
-15 -9 -15 -9 0 -12 6 -9 15 4 8 7 15 9 15 2 0 5 -7 9 -15z m106 -7 c-3 -36 0
-44 10 -28 8 12 9 9 8 -11 -2 -20 -8 -25 -30 -27 -32 -3 -47 20 -29 42 6 7 8
16 5 19 -9 9 6 27 22 27 10 0 15 -8 14 -22z m140 2 c0 -16 -7 -20 -35 -20 -28
0 -35 4 -35 20 0 16 7 20 35 20 28 0 35 -4 35 -20z m110 5 c0 -9 -9 -15 -24
-15 -14 0 -28 -4 -31 -10 -4 -6 6 -10 24 -10 22 0 29 -4 25 -14 -3 -8 2 -16
13 -19 10 -3 -7 -5 -37 -6 -30 0 -50 3 -44 7 6 4 11 18 10 32 -1 20 5 26 29
31 l30 6 -35 5 -35 5 38 1 c27 2 37 -2 37 -13z m139 -17 c-2 -30 -2 -30 -6 -6
-4 23 -10 27 -41 31 l-37 4 43 1 c41 2 42 2 41 -30z m156 12 c7 0 16 6 18 13
3 6 6 0 6 -15 1 -23 -3 -28 -24 -28 -21 0 -25 5 -24 28 0 15 3 21 6 15 2 -7
11 -13 18 -13z m148 -21 c31 -1 31 -1 7 -9 -17 -5 -19 -8 -7 -9 10 -1 17 -9
17 -21 0 -16 -7 -20 -35 -20 -28 0 -35 4 -35 20 0 12 7 20 18 21 11 1 9 4 -8
9 -14 4 -19 8 -12 9 6 1 13 11 13 24 l2 22 4 -22 c3 -18 12 -23 36 -24z m7 26
c0 -8 -4 -15 -8 -15 -5 0 -9 7 -9 15 0 8 4 15 9 15 4 0 8 -7 8 -15z m-350 -45
c7 23 8 23 9 3 1 -14 9 -23 24 -26 12 -2 -3 -5 -33 -5 -30 0 -49 2 -42 5 6 2
12 14 13 26 0 21 1 20 11 -3 l11 -25 7 25z m-555 -10 c8 -13 -12 -40 -29 -40
-22 0 -39 18 -33 34 7 18 52 22 62 6z m338 3 c-13 -2 -24 -12 -24 -21 -1 -16
-2 -16 -6 0 -2 9 -14 19 -26 21 -12 2 1 4 28 4 28 0 40 -2 28 -4z m-603 -26
c22 -4 21 -4 -7 -6 -31 -1 -49 10 -36 23 4 3 9 2 12 -3 3 -5 17 -11 31 -14z
m130 6 c0 -12 -3 -14 -8 -6 -4 6 -21 13 -37 16 -27 4 -27 4 8 6 29 1 37 -3 37
-16z m920 -6 c21 -4 20 -4 -7 -6 -25 -1 -33 3 -33 17 0 11 3 13 8 6 4 -7 18
-14 32 -17z"/>
<path d="M2978 2793 c6 -2 18 -2 25 0 6 3 1 5 -13 5 -14 0 -19 -2 -12 -5z"/>
<path d="M3849 2621 c30 -17 56 -30 58 -28 9 9 -47 47 -77 53 -33 5 -31 4 19
-25z"/>
<path d="M6776 2405 c4 -8 8 -15 10 -15 2 0 4 7 4 15 0 8 -4 15 -10 15 -5 0
-7 -7 -4 -15z"/>
<path d="M4580 2140 c0 -35 3 -40 24 -40 13 0 29 7 36 15 20 24 -3 65 -35 65
-23 0 -25 -4 -25 -40z"/>
<path d="M6027 984 c-16 -16 -6 -35 16 -32 12 2 22 10 22 18 0 16 -26 25 -38
14z"/>
<path d="M4880 930 c0 -5 20 -10 45 -10 25 0 45 5 45 10 0 6 -20 10 -45 10
-25 0 -45 -4 -45 -10z"/>
<path d="M5811 979 c-35 -14 -25 -53 15 -57 34 -3 58 17 48 41 -7 20 -34 26
-63 16z"/>
<path d="M3910 930 c0 -26 3 -30 29 -30 16 0 35 7 42 16 11 14 10 18 -6 30
-10 8 -29 14 -42 14 -19 0 -23 -5 -23 -30z"/>
<path d="M4610 940 c-24 -24 -25 -48 -4 -78 33 -48 117 -8 99 47 -16 51 -61
65 -95 31z"/>
<path d="M5340 630 c0 -5 7 -10 16 -10 8 0 12 5 9 10 -3 6 -10 10 -16 10 -5 0
-9 -4 -9 -10z"/>
<path d="M4750 580 c0 -5 11 -10 25 -10 14 0 25 5 25 10 0 6 -11 10 -25 10
-14 0 -25 -4 -25 -10z"/>
<path d="M4880 640 c0 -5 5 -10 10 -10 6 0 10 5 10 10 0 6 -4 10 -10 10 -5 0
-10 -4 -10 -10z"/>
<path d="M4877 603 c-13 -12 -7 -23 13 -23 13 0 18 5 14 15 -7 16 -17 19 -27
8z"/>
<path d="M4990 640 c0 -5 11 -10 25 -10 14 0 25 5 25 10 0 6 -11 10 -25 10
-14 0 -25 -4 -25 -10z"/>
<path d="M5120 590 c0 -5 5 -10 10 -10 6 0 10 5 10 10 0 6 -4 10 -10 10 -5 0
-10 -4 -10 -10z"/>
<path d="M5448 623 c7 -3 16 -2 19 1 4 3 -2 6 -13 5 -11 0 -14 -3 -6 -6z"/>
<path d="M5560 580 c0 -5 11 -10 25 -10 14 0 25 5 25 10 0 6 -11 10 -25 10
-14 0 -25 -4 -25 -10z"/>
<path d="M4652 578 c5 -15 37 -18 41 -3 1 6 -9 12 -22 13 -16 3 -22 -1 -19
-10z"/>
<path d="M6423 2823 c9 -2 25 -2 35 0 9 3 1 5 -18 5 -19 0 -27 -2 -17 -5z"/>
</g>
</svg>
